<svg version="1.1" id="Layer_1" xmlns="http://www.w3.org/2000/svg" fill="none" xmlns:xlink="http://www.w3.org/1999/xlink" x="0px" y="0px"
	 width="200" height="200" viewBox="0 0 496 496" enable-background="new 0 0 496 496" xml:space="preserve">
<path fill="white" opacity="1.000000" stroke="none" 
	d="
M353.226257,219.696350 
	C361.309784,220.321274 368.929016,220.927750 376.541473,221.610046 
	C377.918030,221.733429 379.886627,221.154785 380.254456,223.211090 
	C380.636200,225.345001 378.656433,225.915436 377.231476,226.647293 
	C372.347626,229.155563 367.415833,231.570343 362.518829,234.053360 
	C361.378082,234.631775 359.988800,234.870392 358.956207,236.748398 
	C364.697571,239.052353 370.335052,241.309982 375.968048,243.578735 
	C377.201813,244.075653 378.439728,244.570160 379.638275,245.144058 
	C380.561218,245.585983 381.357574,246.220642 381.287415,247.401810 
	C381.215332,248.615524 380.387878,249.073318 379.312988,249.248993 
	C370.954285,250.615173 362.601349,252.018372 354.232178,253.316986 
	C352.846588,253.531998 350.970886,253.916000 350.905853,251.556091 
	C350.849091,249.497955 352.646698,249.263504 354.042877,249.018356 
	C359.106964,248.129150 364.197662,247.391541 369.557709,245.674332 
	C364.810211,243.753952 360.033875,241.900574 355.330109,239.878433 
	C353.583649,239.127609 350.928101,239.031738 350.687408,236.668594 
	C350.424194,234.085022 353.209564,233.926041 354.845001,233.056946 
	C359.349060,230.663422 363.953949,228.459671 368.945618,225.967865 
	C363.522522,223.764694 358.318176,224.663651 353.304321,224.009201 
	C351.886383,223.824112 350.100830,223.769684 349.991211,221.713287 
	C349.887970,219.776840 351.436188,219.829254 353.226257,219.696350 
z"/>
<path fill="white" opacity="1.000000" stroke="none" 
	d="
M322.904785,145.209076 
	C320.287750,151.078522 314.652924,154.460663 309.057281,153.943649 
	C302.454102,153.333557 296.584900,148.530167 294.857727,142.322693 
	C293.085724,135.954010 295.573700,128.695786 300.789368,125.018394 
	C306.733368,120.827484 313.661957,120.739670 319.428619,124.782135 
	C324.743225,128.507706 327.083862,134.550491 325.383545,140.299149 
	C322.021301,140.461533 322.037872,138.007568 321.615509,135.671341 
	C320.554352,129.801590 315.756622,126.064613 309.895660,126.346092 
	C303.946381,126.631813 299.193024,131.536545 298.805603,137.789291 
	C298.475403,143.119263 302.414948,148.387054 307.801239,149.427155 
	C311.150635,150.073944 314.404449,149.843826 316.410767,146.298447 
	C314.813812,143.523865 311.777100,142.874649 309.760254,140.962433 
	C308.894196,140.141312 307.896820,139.380600 308.675385,138.032990 
	C309.583405,136.461304 310.905121,136.787903 312.095093,137.588745 
	C315.668549,139.993652 319.654846,141.795517 322.904785,145.209076 
z"/>
<path fill="white" opacity="1.000000" stroke="none" 
	d="
M244.361938,364.035736 
	C243.945709,373.318542 238.336563,379.509521 230.065750,380.259888 
	C222.406784,380.954712 215.754745,376.269653 214.198166,369.016266 
	C216.868149,367.447113 217.954788,369.452332 219.327393,371.156921 
	C222.911530,375.607910 227.837341,376.999847 232.655365,375.072845 
	C237.624191,373.085541 240.292953,368.406494 239.771973,362.595581 
	C239.328217,357.646027 235.801056,353.781921 230.667206,352.621002 
	C225.343750,351.417267 220.728577,354.302795 218.959778,360.290710 
	C221.779282,360.581940 224.544601,360.781738 227.279175,361.188202 
	C228.544205,361.376282 230.116684,361.679352 229.950821,363.513855 
	C229.783127,365.368500 228.203171,365.362823 226.907242,365.264801 
	C223.259720,364.988922 219.574585,364.816559 215.996765,364.124939 
	C212.495514,363.448120 213.577286,360.645111 214.235703,358.512115 
	C216.167603,352.253357 222.843994,347.700104 229.167465,348.123199 
	C236.669662,348.625153 242.809372,353.707336 244.172928,360.604889 
	C244.364807,361.575500 244.303482,362.596161 244.361938,364.035736 
z"/>
<path fill="white" opacity="1.000000" stroke="none" 
	d="
M106.127907,217.300537 
	C108.545822,214.705017 110.746384,212.429459 114.361557,212.404831 
	C116.166191,215.470108 113.622551,216.457092 111.910614,217.858871 
	C107.167946,221.742279 105.920074,227.046631 108.519897,232.100266 
	C111.043427,237.005569 116.916367,239.589371 121.990959,238.026825 
	C127.880142,236.213486 131.205673,231.530258 130.625259,225.649506 
	C130.234009,221.685226 128.235962,218.878952 124.317535,217.554886 
	C121.428146,219.480316 122.682465,222.445053 122.205589,224.906693 
	C121.887085,226.550827 121.794937,228.512726 119.399818,228.157532 
	C117.267815,227.841354 117.703171,225.941223 117.788620,224.544907 
	C117.909935,222.562622 118.364021,220.603317 118.586723,218.624161 
	C119.446136,210.986542 121.085693,210.184402 127.821602,214.155807 
	C132.629837,216.990662 135.782425,223.269989 135.034515,228.522430 
	C133.969940,235.998474 129.532974,240.851227 122.129211,242.637039 
	C116.236702,244.058334 109.718079,241.690292 106.277672,236.712860 
	C101.954704,230.458633 101.753380,224.053558 106.127907,217.300537 
z"/>
<path fill="white" opacity="1.000000" stroke="none" 
	d="
M336.011230,298.320862 
	C335.633942,295.139526 336.915344,294.076569 339.351715,295.779572 
	C346.302521,300.638092 353.124664,305.680908 359.983246,310.670746 
	C360.945862,311.371094 361.904602,312.239349 361.222382,313.573120 
	C360.421814,315.138275 358.808014,315.128723 357.311005,315.252472 
	C349.698395,315.881653 342.085663,316.509552 334.474335,317.153656 
	C333.834137,317.207825 333.203766,317.378296 331.542969,317.682953 
	C336.772858,321.543732 341.368500,324.913086 345.935303,328.321198 
	C347.353729,329.379761 349.485748,330.414185 347.651978,332.584320 
	C346.127625,334.388245 344.605957,332.854156 343.315247,331.909302 
	C336.134674,326.652618 328.989319,321.347748 321.984161,315.222565 
	C331.692749,311.789581 341.776367,312.557739 352.690308,311.046326 
	C346.633820,306.478546 341.414551,302.542145 336.011230,298.320862 
z"/>
<path fill="white" opacity="1.000000" stroke="none" 
	d="
M142.417191,326.063293 
	C132.958344,326.576019 126.690376,322.949127 124.083855,315.787048 
	C121.704750,309.249847 123.967224,301.512299 129.432480,297.495087 
	C137.118927,291.845123 148.121002,293.909515 152.922256,301.902649 
	C157.896667,310.184021 154.856613,320.358246 146.076431,324.715912 
	C145.041153,325.229706 143.912567,325.555450 142.417191,326.063293 
M150.689041,311.221802 
	C150.464401,304.230194 147.482407,300.259979 141.414810,298.874237 
	C136.895386,297.842072 131.216934,300.687531 128.929092,305.130829 
	C126.350166,310.139435 127.374825,315.420654 131.636551,319.085876 
	C138.310822,324.825989 147.566833,321.380035 150.689041,311.221802 
z"/>
<path fill="white" opacity="1.000000" stroke="none" 
	d="
M112.754395,286.396667 
	C108.052505,286.660736 108.952080,284.377655 110.493576,282.168182 
	C114.305000,276.705170 118.265343,271.346191 122.155220,265.937744 
	C123.206848,264.475586 124.220604,262.986206 125.663513,260.919586 
	C120.371338,260.852997 116.129700,262.733368 111.707069,263.483246 
	C110.234581,263.732941 108.792198,264.166107 107.341553,264.536896 
	C105.993370,264.881500 104.596001,265.196259 104.038506,263.440857 
	C103.403152,261.440369 104.807114,260.763428 106.361923,260.374298 
	C112.650467,258.800476 118.921234,257.138885 125.254776,255.769684 
	C127.891731,255.199615 131.450516,252.814758 133.145096,255.234634 
	C135.181839,258.143097 131.249481,260.405640 129.705627,262.731781 
	C125.873764,268.505371 121.680977,274.039398 116.801460,280.826447 
	C123.622147,279.229218 129.049591,277.885651 134.515671,276.723877 
	C136.091995,276.388824 138.403519,274.946167 139.031754,277.824799 
	C139.620407,280.521973 137.020508,280.555511 135.430466,280.961090 
	C128.019211,282.851593 120.564217,284.570557 112.754395,286.396667 
z"/>
<path fill="white" opacity="1.000000" stroke="none" 
	d="
M227.959137,118.977005 
	C227.904205,114.336441 227.919067,110.189117 227.791412,106.046181 
	C227.702301,103.154732 228.874344,101.756088 231.858276,101.752823 
	C235.509186,101.748825 239.129272,101.667175 242.703384,102.705452 
	C249.607300,104.711044 253.460281,109.771996 253.748810,117.445229 
	C253.988022,123.807098 250.286316,129.275513 244.111084,131.682724 
	C231.680542,136.528381 228.210388,133.903549 227.959137,118.977005 
M235.761841,128.717224 
	C244.731888,128.522034 249.213684,124.512505 248.966446,116.904114 
	C248.743225,110.035652 243.648788,105.907646 236.139404,106.222137 
	C233.399200,106.336891 232.250854,107.336655 232.321335,110.094032 
	C232.448380,115.064377 232.393143,120.039192 232.439362,125.011894 
	C232.455673,126.767334 232.765549,128.370697 235.761841,128.717224 
z"/>
<path fill="white" opacity="1.000000" stroke="none" 
	d="
M366.005005,285.308044 
	C359.254944,285.881042 352.967621,286.489136 346.671173,286.981079 
	C344.984589,287.112885 342.491180,288.063751 342.096039,285.505768 
	C341.643829,282.578217 344.269501,282.594421 346.240204,282.666290 
	C350.831238,282.833740 351.950226,279.723450 352.994171,276.172729 
	C353.990601,272.783539 355.553467,269.614319 351.367279,267.068329 
	C349.455414,265.905518 347.676666,264.105865 349.751312,261.156006 
	C354.101074,263.031555 357.123383,266.394012 360.564972,269.148682 
	C364.464661,272.269928 368.331818,275.435608 372.119263,278.691193 
	C373.415009,279.804962 375.577667,280.712311 374.728363,282.999847 
	C374.042328,284.847717 372.032227,284.716980 370.444489,285.001099 
	C369.141663,285.234253 367.792755,285.209839 366.005005,285.308044 
M365.312836,280.857788 
	C366.202209,280.665863 367.150299,280.147247 366.174835,279.323578 
	C363.854553,277.364380 361.808533,274.938904 358.654602,273.796478 
	C357.493164,276.292786 356.256836,278.415253 356.731567,281.009705 
	C359.513031,282.349091 362.085449,281.257111 365.312836,280.857788 
z"/>
<path fill="white" opacity="1.000000" stroke="none" 
	d="
M338.120850,157.146942 
	C335.635437,159.132141 333.310638,160.778458 331.270142,162.723099 
	C328.198853,165.650040 327.700104,169.024567 330.431122,172.496582 
	C333.141663,175.942520 336.550751,176.516449 340.087128,174.024078 
	C344.572540,170.862823 348.820648,167.366608 353.219147,164.079147 
	C354.625824,163.027802 356.278839,161.314941 357.863770,163.612930 
	C359.241211,165.610092 357.231750,166.594421 356.004517,167.561996 
	C351.823212,170.858643 347.661469,174.192520 343.324738,177.276672 
	C337.518188,181.406113 331.193481,180.439529 327.020111,175.032013 
	C322.929565,169.731812 323.651886,163.148087 329.060364,158.634415 
	C333.274780,155.117294 337.694153,151.844650 342.046722,148.494934 
	C343.263000,147.558899 344.622589,146.622513 345.922974,148.321121 
	C347.242828,150.045273 345.846832,151.101593 344.712250,152.038498 
	C342.660522,153.732758 340.515045,155.313492 338.120850,157.146942 
z"/>
<path fill="white" opacity="1.000000" stroke="none" 
	d="
M159.787659,354.119476 
	C156.496490,351.561310 153.489899,349.203552 150.508560,346.814270 
	C149.421127,345.942749 148.448959,344.927704 149.571091,343.470490 
	C150.635529,342.088196 151.875778,342.483643 153.051346,343.372314 
	C153.846008,343.973053 154.597595,344.630371 155.382462,345.244446 
	C161.111496,349.727295 161.180771,349.711334 165.276321,343.039551 
	C164.589233,340.617493 162.089706,339.906799 160.520142,338.294800 
	C159.255249,336.995697 156.311890,336.181976 158.046402,333.734589 
	C159.874649,331.154877 161.524261,333.659973 162.969040,334.739044 
	C169.595963,339.688477 169.575531,339.715851 174.029907,331.665344 
	C172.245499,329.132568 169.381073,327.666992 167.066254,325.606476 
	C165.857666,324.530670 164.932922,323.332672 166.341995,321.809357 
	C167.641647,320.404419 168.729141,321.563324 169.819794,322.261658 
	C169.959366,322.351044 170.084122,322.463196 170.220779,322.557526 
	C181.508301,330.347198 181.514099,330.351624 173.102921,341.123291 
	C170.240738,344.788757 167.380783,348.457336 164.439056,352.058533 
	C163.352539,353.388611 162.475418,355.395050 159.787659,354.119476 
z"/>
<path fill="white" opacity="1.000000" stroke="none" 
	d="
M273.877838,352.045349 
	C266.388123,348.370300 261.313995,351.575867 262.281250,359.286560 
	C262.940338,364.540833 264.417999,369.693573 265.555176,374.886108 
	C265.908356,376.498657 266.771179,378.393036 264.375641,378.982910 
	C262.033905,379.559601 261.674194,377.491211 261.330170,375.914429 
	C259.987030,369.757721 257.709534,363.767426 257.658539,357.374756 
	C257.609894,351.277069 261.157532,347.255859 267.401886,346.017029 
	C272.782745,344.949524 278.258545,347.859955 280.016388,353.430511 
	C281.812347,359.122009 282.973450,365.018158 284.299286,370.850464 
	C284.609467,372.214905 285.198303,374.020508 283.119415,374.631226 
	C280.686493,375.345917 280.345886,373.256927 279.956635,371.752686 
	C278.790833,367.247375 277.803131,362.695801 276.757996,358.159485 
	C276.268768,356.036163 275.681091,353.962585 273.877838,352.045349 
z"/>
<path fill="white" opacity="1.000000" stroke="none" 
	d="
M151.871780,157.116821 
	C148.877762,153.964493 146.165329,151.029510 143.336487,148.211380 
	C141.332474,146.214966 140.827377,144.530548 143.350845,142.461105 
	C146.047241,140.249863 148.464752,137.701263 151.049179,135.349564 
	C152.183609,134.317291 153.431671,134.141525 154.518875,135.459290 
	C155.500107,136.648636 154.873123,137.634674 153.968384,138.493164 
	C153.003235,139.408936 151.971161,140.253799 150.995239,141.158661 
	C148.840927,143.156113 146.108795,144.623611 149.474350,148.287704 
	C152.655960,151.751511 154.312393,149.832153 156.755203,147.745331 
	C158.408081,146.333313 160.070786,142.430695 162.512177,144.906525 
	C165.380539,147.815338 161.160553,149.354553 159.542404,150.976837 
	C155.384521,155.145340 155.383484,155.481857 162.586594,161.188889 
	C164.831467,159.183975 167.135880,157.096329 169.476013,155.049500 
	C170.507858,154.147003 171.675659,153.300110 172.982681,154.511276 
	C174.611008,156.020203 173.365128,157.163986 172.336319,158.285858 
	C172.223953,158.408386 172.095291,158.515945 171.982941,158.638504 
	C162.637329,168.833344 162.637390,168.833389 151.871780,157.116821 
z"/>
<path fill="white" opacity="1.000000" stroke="none" 
	d="
M188.492584,142.169266 
	C190.720551,141.014053 192.601868,139.943649 194.572220,139.075226 
	C195.782028,138.542007 196.827805,138.963791 197.393890,140.284790 
	C197.909851,141.488815 197.249039,142.248581 196.350845,142.739365 
	C192.566299,144.807312 188.765121,146.848053 184.920685,148.801620 
	C183.350784,149.599380 182.452698,148.501358 181.768524,147.262466 
	C177.756149,139.996994 173.762512,132.721161 169.742950,125.459686 
	C168.679596,123.538666 168.824188,122.070427 170.960693,120.975578 
	C174.210403,119.310272 177.399033,117.525917 180.615723,115.796013 
	C181.880554,115.115791 183.176498,114.699677 183.999496,116.336990 
	C184.769104,117.868118 183.894806,118.810272 182.601013,119.546974 
	C180.034119,121.008614 177.488907,122.508331 174.972656,123.970291 
	C175.218796,126.880089 176.681808,128.863708 178.234360,131.096375 
	C181.313324,130.807739 183.596924,128.710007 186.238205,127.478027 
	C187.532990,126.874107 188.810547,126.468750 189.689438,128.018097 
	C190.626480,129.669907 189.328873,130.447754 188.213745,131.156937 
	C186.814774,132.046631 185.370361,132.874756 183.896835,133.635010 
	C181.587799,134.826340 180.634979,136.414215 182.174744,138.838196 
	C183.570068,141.034775 184.086044,144.769730 188.492584,142.169266 
z"/>
<path fill="white" opacity="1.000000" stroke="none" 
	d="
M276.291229,110.838638 
	C271.991241,117.254608 272.374084,118.384987 279.158722,120.451118 
	C280.266357,120.788437 281.360474,121.175598 282.444580,121.583046 
	C283.520874,121.987564 284.052551,122.771835 283.694092,123.917053 
	C283.348206,125.022179 282.475067,125.509293 281.369202,125.290009 
	C279.745697,124.968086 278.044434,124.746597 276.558472,124.077644 
	C272.240906,122.133949 271.342407,124.662888 270.092590,128.082764 
	C268.506561,132.422562 271.195251,132.845917 274.018829,133.593292 
	C275.623413,134.018021 277.238220,134.418335 278.812714,134.937912 
	C279.964264,135.317917 281.037140,136.008255 280.664581,137.440750 
	C280.321198,138.761002 279.209747,139.285522 277.925140,138.932281 
	C273.929199,137.833496 269.941803,136.697021 265.982849,135.472534 
	C263.805511,134.799072 264.067261,133.162216 264.572601,131.411789 
	C266.735809,123.918945 268.896149,116.424492 270.948792,108.900963 
	C271.703735,106.133965 273.069427,105.041725 275.969177,105.998833 
	C279.116852,107.037781 282.347137,107.824875 285.535034,108.743980 
	C286.894562,109.135956 288.139618,109.702194 287.555878,111.491653 
	C287.017853,113.140968 285.794647,113.196899 284.338623,112.792397 
	C281.780823,112.081795 279.200348,111.452835 276.291229,110.838638 
z"/>
<path fill="white" opacity="1.000000" stroke="none" 
	d="
M346.961365,201.346741 
	C347.991943,204.011810 348.898987,206.334854 349.734192,208.683411 
	C350.098694,209.708298 349.959778,210.668625 348.836792,211.201263 
	C347.544495,211.814240 346.448578,211.427719 345.951141,210.173935 
	C343.928833,205.076477 341.601379,200.048187 340.183533,194.779877 
	C339.124115,190.843414 342.671753,191.640884 344.751190,191.951813 
	C350.985046,192.883911 357.183624,194.058060 363.384460,195.200333 
	C365.011902,195.500107 366.595215,195.978317 368.393158,194.976135 
	C368.203033,192.055817 366.555634,189.657303 365.825439,186.992905 
	C365.429169,185.546860 364.018311,183.690079 366.589844,182.863617 
	C368.565094,182.228790 369.168854,183.853851 369.728119,185.260574 
	C371.201752,188.967209 372.643463,192.686615 374.085052,196.405930 
	C375.498016,200.051422 374.201782,201.444366 370.429565,200.794525 
	C362.425659,199.415680 354.419403,198.050369 346.411285,196.679031 
	C345.282135,198.419342 346.485413,199.670380 346.961365,201.346741 
z"/>
<path fill="white" opacity="1.000000" stroke="none" 
	d="
M304.325684,357.309113 
	C303.703308,360.974915 305.990234,365.057892 301.911163,367.429291 
	C299.527008,366.039886 300.040131,364.033539 300.059174,362.308990 
	C300.148956,354.165070 300.736053,345.957428 295.161072,338.983490 
	C294.315857,337.926147 293.959686,336.516663 295.468842,335.504822 
	C296.943390,334.516144 298.201874,335.107086 298.692383,336.526428 
	C301.952362,345.959137 310.410126,349.611206 318.056335,354.193665 
	C318.872864,354.682983 319.907837,355.067200 320.029541,356.263489 
	C318.484406,357.596039 318.484406,357.596039 305.072601,352.163300 
	C303.811340,353.567963 304.565247,355.309753 304.325684,357.309113 
z"/>
<path fill="white" opacity="1.000000" stroke="none" 
	d="
M191.517746,351.419922 
	C193.070297,348.077911 194.423111,345.039246 195.807266,342.014984 
	C196.359344,340.808777 197.239670,340.230103 198.618301,340.708771 
	C200.032181,341.199738 200.542191,342.414307 199.850967,343.460236 
	C194.190247,352.025604 196.284821,361.277405 197.253860,370.445801 
	C197.304596,370.925995 197.180206,371.445404 197.039764,371.917511 
	C196.952438,372.211121 196.681183,372.450043 196.152756,373.187744 
	C189.971619,369.750183 193.847687,362.852844 191.089691,358.468811 
	C185.769073,358.999695 183.440826,367.178467 177.110641,365.139313 
	C176.834503,364.624115 176.558365,364.108887 176.282227,363.593689 
	C181.298355,359.638794 186.314468,355.683899 191.517746,351.419922 
z"/>
<path fill="white" opacity="1.000000" stroke="none" 
	d="
M140.517914,184.532440 
	C134.758286,180.824356 129.290726,177.337418 123.847672,173.812668 
	C122.438789,172.900299 120.802216,171.919846 122.292564,169.898010 
	C123.575096,168.158081 124.973740,169.242279 126.217033,170.026962 
	C132.653488,174.089279 139.065353,178.190536 145.410278,182.230148 
	C148.061752,180.319611 148.851440,177.644958 150.449539,175.575974 
	C151.379974,174.371384 152.294708,172.981018 154.071106,174.261887 
	C155.571869,175.343994 154.840851,176.595078 154.133270,177.763596 
	C153.185898,179.328094 152.208801,180.874756 151.232727,182.421692 
	C147.198334,188.815582 147.196701,188.814560 140.517914,184.532440 
z"/>
<path fill="white" opacity="1.000000" stroke="none" 
	d="
M211.314087,123.226471 
	C213.186966,122.766922 214.836533,122.371216 215.343842,124.395081 
	C215.887451,126.563728 213.882217,126.681992 212.604828,127.130920 
	C210.738708,127.786758 208.780960,128.179001 206.869812,128.710678 
	C205.583817,129.068436 204.516205,128.864243 204.088562,127.476799 
	C203.659882,126.085930 204.475739,125.251862 205.691513,124.856300 
	C207.419601,124.294075 209.186447,123.850952 211.314087,123.226471 
z"/>
</svg>